<svg xmlns="http://www.w3.org/2000/svg" width="420" height="420"><path fill="#A8AAAF" d="m268.938 55.938 2.199.66C284.047 60.727 295.607 67.157 305 77l2.355 2.367c9.741 10.214 15.856 22.006 18.457 35.883 1.153 3.64 1.81 4.675 4.313 7.313 3.33 3.552 5.795 7.37 8.125 11.624l.997 1.743c6.043 11.375 6.19 23.782 6.253 36.32.124 24.697 5.944 45.148 16.779 67.325 5.316 11.063 9.516 22.131 9.221 34.55l-.043 2.594c-.653 19.679-14.214 38.317-27.957 51.719-4.931 5.645-5.552 14.787-5.453 21.98.225 2.554.517 5.056.953 7.582 5.833-1.944 10.59-4.47 15.703-7.89C357 349 357 349 359.297 349.327L361 350c-.038 8.495-2.882 14.67-7 22l3.219-.402 4.281-.536 2.11-.263c1.41-.177 2.822-.352 4.234-.525 1.48-.188 2.96-.388 4.437-.599A172.06 172.06 0 0 1 378 369c1 1 1 1 1 4.375-.843 6.101-4.469 10.738-8 15.625l-1.445 2.012C363.449 398.774 355.412 403.419 346 406l2 14H69c1.412-14.122 5.718-28.07 15.628-38.756 4.693-5.214 4.949-9.303 4.593-16.203l-.284-3.603-.2-3.616C88.4 352.166 87.871 346.601 87 341c-.84-8.45-1.035-16.819-.969-25.305 0-6.947-.362-13.888-.676-20.827C84.498 275.54 84.498 275.54 89 270c3.75-.938 3.75-.938 7-1l.113-1.871.2-2.567.175-2.496c.448-2.684 1.113-4.787 2.055-7.316 1.695-4.885 1.706-9.195 1.457-14.313-.32-6.592.078-11.424 3-17.437l3-1-.048-3.358a1954.03 1954.03 0 0 1-.117-12.536 855.162 855.162 0 0 0-.061-5.387c-.158-11.075.367-20.961 3.226-31.719.326-1.48.646-2.962.957-4.445 3.208-13.797 9.346-24.328 17.438-35.778 2.12-3.022 3.998-6.11 5.793-9.34 4.403-7.49 10.951-11.782 18.367-16.023 2.258-1.306 4.404-2.712 6.57-4.164 5.326-3.346 10.593-4.37 16.875-4.25l-.07-2.344c-.259-14.919-.259-14.919 4.007-19.933 7.606-7.326 18.37-14.329 29.215-14.82 5.01.202 8.544 1.375 12.987 3.726 2.962 1.537 5.594 2.64 8.861 3.371 3.531-1.47 5.798-3.256 8.598-5.844 7.994-7.176 20.703-6.12 30.34-3.218Z"/><path fill="#473024" d="m268.938 55.938 2.199.66C284.047 60.727 295.607 67.157 305 77l2.355 2.367c9.741 10.214 15.856 22.006 18.457 35.883 1.153 3.64 1.81 4.675 4.313 7.313 3.33 3.552 5.795 7.37 8.125 11.624l.997 1.743c6.043 11.375 6.19 23.782 6.253 36.32.124 24.697 5.944 45.148 16.779 67.325 5.316 11.063 9.516 22.131 9.221 34.55l-.043 2.594c-.653 19.679-14.214 38.317-27.957 51.719-4.931 5.645-5.552 14.787-5.453 21.98.225 2.554.517 5.056.953 7.582 5.833-1.944 10.59-4.47 15.703-7.89C357 349 357 349 359.297 349.327L361 350c-.038 8.495-2.882 14.67-7 22l3.219-.402 4.281-.536 2.11-.263c1.41-.177 2.822-.352 4.234-.525 1.48-.188 2.96-.388 4.437-.599A172.06 172.06 0 0 1 378 369c1 1 1 1 1 4.375-.843 6.101-4.469 10.738-8 15.625l-1.445 2.012C363.617 398.56 355.365 403.88 346 406h-2l-1.504-3.113-2.058-4.2-1.084-2.241c-2.103-4.258-4.355-7.804-7.354-11.509-5.012-7.632-3.585-17.018-3.156-25.76.159-3.229.27-6.457.37-9.689.532-15.666.532-15.666 1.286-21.918 1.204-10.12 1.2-20.393 1.5-30.57l.107-3.188c.092-2.896.154-5.79.205-8.687l.09-2.626c.075-4.862.075-4.862-2.297-9.007-3.307-2.344-5.308-2.654-9.332-2.808l-3.125-.127-3.273-.12-3.297-.13A2732.43 2732.43 0 0 0 303 270c-.17-2.187-.336-4.375-.5-6.563l-.281-3.69C302 256 302 256 302.137 252.538c-.166-4.3-1.277-7.624-2.825-11.601l-.74-2.065c-1.82-4.797-4.21-8.018-7.572-11.873v-2l-1.793-.781c-6.475-3.576-10.726-11.219-14.727-17.215-1.33-2.118-1.33-2.118-3.48-3.004-6.821-.553-12.79-.219-19.16 2.344C250 207 250 207 247 207v2c-5.417.934-8.805 1.208-14-1l-1-5c6-1.725 11.808-3.15 18-4l2.813-1.063c6.884-2.024 13.495-1.265 20.187 1.063-.708-2.958-.708-2.958-2-6l-1.945-.914c-2.702-1.428-3.094-2.775-4.18-5.586-1.103-2.808-1.718-4.343-3.875-6.5l-.805-2.367c-1.513-3.334-3.377-4.62-6.32-6.758-2.758-2.008-2.758-2.008-4.875-3.875v-3l-4-1v-2l-2.25-.875A81.918 81.918 0 0 1 236 157v-2l-2.75-.375c-2.914-.56-4.654-1.327-7.25-2.625a111.726 111.726 0 0 0-6-1v-2c-6.35-.06-12.699-.057-19.05-.012-2.155.008-4.311.002-6.467-.019-16.053-.508-16.053-.508-29.562 7.072L163 158c-5.365 4-5.365 4-8 4-.26.598-.52 1.196-.79 1.813-1.29 2.331-2.558 3.487-4.585 5.187-3.974 3.834-5.205 7.785-6.723 13.008-1.025 3.401-2.408 6.483-3.972 9.664-3.065 7.674-3.658 15.74-4.493 23.89-.471 4.48-.95 8.96-1.437 13.438l-.422 3.969c-.639 3.35-1.74 5.923-3.266 8.969a189.728 189.728 0 0 0-6.625 15.562l-.77 2.031c-1.304 3.52-2.175 6.76-2.917 10.469h12v1c-4.769.05-9.538.086-14.307.11-1.621.01-3.243.024-4.865.04-2.333.025-4.666.036-7 .045l-2.191.032c-3.715 0-6.483-.165-9.637-2.227h3l.113-1.871.2-2.567.175-2.496c.448-2.684 1.113-4.787 2.055-7.316 1.695-4.885 1.706-9.195 1.457-14.313-.32-6.592.078-11.424 3-17.437l3-1-.048-3.358a1954.03 1954.03 0 0 1-.117-12.536 855.162 855.162 0 0 0-.061-5.387c-.158-11.075.367-20.961 3.226-31.719.326-1.48.646-2.962.957-4.445 3.208-13.797 9.346-24.328 17.438-35.778 2.12-3.022 3.998-6.11 5.793-9.34 4.403-7.49 10.951-11.782 18.367-16.023 2.258-1.306 4.404-2.712 6.57-4.164 5.326-3.346 10.593-4.37 16.875-4.25l-.07-2.344c-.259-14.919-.259-14.919 4.007-19.933 7.606-7.326 18.37-14.329 29.215-14.82 5.01.202 8.544 1.375 12.987 3.726 2.962 1.537 5.594 2.64 8.861 3.371 3.531-1.47 5.798-3.256 8.598-5.844 7.994-7.176 20.703-6.12 30.34-3.218Z"/><path fill="#DDB894" d="m184.746 148.512 3.064.021c3.21.028 6.418.09 9.627.155 2.185.025 4.369.047 6.553.068 5.337.055 10.674.138 16.01.244v2l2.375-.25c5.001.345 9.077 2.236 13.625 4.25v2l2.25.875A81.918 81.918 0 0 1 245 161v2l1.875.25L249 164l.82 1.8c1.987 3.704 5.527 5.66 8.868 8.102 2.513 2.28 3.266 3.92 4.312 7.098l1.438 1.875C266 185 266 185 267.5 188.563c1.344 3.08 2.188 4.23 4.5 6.437.688 2.188.688 2.188 1 4l-2.875-.5c-7.206-1.009-13.23-.87-20.125 1.5-2.562.58-5.11 1.125-7.688 1.625l-2.01.406c-2.823.558-5.416.969-8.302.969.547 2.537.547 2.537 2 5 4.266 1.29 8.569 1.089 13 1v-2c1.249-.482 2.5-.96 3.75-1.438l2.11-.808c5.976-2.105 11.837-2.476 18.14-1.754 2.75 1.813 2.75 1.813 5 5 1.286 1.816 2.579 3.628 3.875 5.438l2.082 2.93c1.765 2.274 3.36 3.929 5.606 5.695C295.69 228.597 301.245 238.756 303 249c.538 6.992.326 14.002 0 21l2.064-.048c3.083-.062 6.165-.101 9.248-.14l3.249-.076 3.115-.029 2.872-.048c2.85.396 3.702 1.12 5.452 3.341l-1 3c-6.384.958-12.08.877-18.496.156-2.502-.366-2.502-.366-4.504.844a105.48 105.48 0 0 1-5.504-.43c-7.708-.659-15.359-.721-23.089-.7-2.338.005-4.676 0-7.014-.007-8.22-.003-16.323.234-24.514.971-3.763.217-7.16-.283-10.879-.834a69.17 69.17 0 0 0-4 1 139.724 139.724 0 0 1-4-1l-2 1v-2l-2.563.438c-15.51 2.538-15.51 2.538-21.437.562-1.34.308-2.672.645-4 1a91.49 91.49 0 0 1-4.976.098l-3.02-.01-3.274-.026-7.017-.025-3.724-.018c-20.228-.1-40.427-.04-60.643.713-9.19.323-18.184.067-27.346-.732 1.074-2.915 1.778-4.778 4-7 2.89-.227 2.89-.227 6.54-.195l3.944.02 4.141.05A1993.91 1993.91 0 0 1 119 270l.188-3.207c.776-6.207 3.404-11.758 5.812-17.48.92-2.211 1.837-4.423 2.75-6.637l1.234-2.94c.961-2.588 1.551-5.02 2.016-7.736l.465-1.973c1.144-5.057 1.747-10.058 2.185-15.216.875-10.215 2.176-19.598 6.909-28.862 1.307-2.674 1.963-4.874 2.566-7.762 1.788-6.363 6.056-9.918 10.875-14.187l1.484-1.543c1.939-1.864 4.05-3.31 6.266-4.832 2.884-1.986 5.594-3.922 8.251-6.214 4.684-3.33 9.172-3.048 14.745-2.9Z"/><path fill="#875C38" d="M188.705 143.517c3.937.577 7.742.477 11.701.335 1.649-.037 3.297-.073 4.946-.106 2.563-.055 5.124-.12 7.686-.22 13.96-.516 23.587 1.55 34.9 10.287 7.118 6.745 11.7 15.916 16.312 24.437 5.18 9.347 10.757 17.69 17.75 25.75a160456.762 160456.762 0 0 1 4.684 5.434l1.566 1.816 1.531 1.775c10.946 12.756 14.761 22.115 14.407 39.1l-.042 3.766c-.035 3.037-.084 6.073-.146 9.109-2.372-3.558-2.062-4.543-1.75-8.687.098-5.811-.918-10.38-2.937-15.75l-.74-2.005c-1.848-4.617-4.331-7.808-7.573-11.558v-2l-1.793-.781c-6.475-3.576-10.726-11.219-14.727-17.215-1.33-2.118-1.33-2.118-3.48-3.004-6.821-.553-12.79-.219-19.16 2.344C250 207 250 207 247 207v2c-5.417.934-8.805 1.208-14-1l-1-5c6-1.725 11.808-3.15 18-4l2.813-1.062c6.884-2.025 13.495-1.266 20.187 1.062-.708-2.958-.708-2.958-2-6l-1.945-.914c-2.702-1.428-3.094-2.775-4.18-5.586-1.103-2.808-1.718-4.343-3.875-6.5l-.805-2.367c-1.513-3.334-3.377-4.62-6.32-6.758-2.758-2.008-2.758-2.008-4.875-3.875v-3l-4-1v-2l-2.25-.875A81.918 81.918 0 0 1 236 157v-2l-2.75-.375c-2.914-.56-4.654-1.327-7.25-2.625a111.726 111.726 0 0 0-6-1v-2c-6.35-.06-12.699-.057-19.05-.012-2.155.008-4.311.002-6.467-.019-16.053-.508-16.053-.508-29.562 7.072L163 158c-5.365 4-5.365 4-8 4-.26.598-.52 1.196-.79 1.813-1.29 2.331-2.558 3.487-4.585 5.187-3.974 3.834-5.205 7.785-6.723 13.008-1.025 3.401-2.408 6.483-3.972 9.664-3.065 7.674-3.658 15.74-4.492 23.89-.472 4.48-.952 8.96-1.438 13.438l-.422 3.969c-.639 3.35-1.74 5.923-3.265 8.969a189.728 189.728 0 0 0-6.625 15.562l-.77 2.031c-1.305 3.52-2.176 6.76-2.918 10.469h12v1H97v-1h20l.875-9.375c.886-8.971 1.805-17.378 5.125-25.812 3.257-8.709 3.814-17.79 4.422-26.993.943-14.194 2.007-27.563 7.578-40.82h2l.75-2.223c4.048-8.993 13.785-14.91 22.496-18.773 8.59-3.2 19.433-4.212 28.46-2.487Z"/><path fill="#DEE1E3" d="m89 270 239 1v5c-6.384.958-12.08.877-18.496.156-2.502-.366-2.502-.366-4.504.844a105.48 105.48 0 0 1-5.504-.43c-7.708-.659-15.359-.721-23.089-.7-2.338.005-4.676 0-7.014-.007-8.22-.003-16.323.234-24.514.971-3.763.217-7.16-.283-10.879-.834a69.17 69.17 0 0 0-4 1 139.724 139.724 0 0 1-4-1l-2 1v-2l-2.563.438c-15.51 2.538-15.51 2.538-21.437.562-1.34.308-2.672.645-4 1a91.49 91.49 0 0 1-4.976.098l-3.02-.01-3.274-.026-7.017-.025-3.724-.018c-20.228-.1-40.427-.04-60.643.713-9.19.323-18.184.067-27.346-.732 1.875-4.75 1.875-4.75 3-7Z"/><path fill="#7C7E83" d="M325 407h1c.109 1.415.186 2.832.25 4.25l.14 2.39c-.56 3.392-1.63 4.31-4.39 6.36-2.995.6-5.95.54-8.996.508l-2.786.019c-3.088.016-6.175.003-9.263-.01a3503.08 3503.08 0 0 1-24.663.02c-6.283-.01-12.566 0-18.849.006-11.228.008-22.456-.005-33.684-.025a8564.944 8564.944 0 0 0-30.547.003c-11.822.022-23.644.03-35.466.018-6.259-.006-12.517-.007-18.776.006-5.884.012-11.767.004-17.65-.02a994.72 994.72 0 0 0-6.488.006c-2.945.01-5.89-.003-8.836-.023l-2.61.027c-3.872-.051-5.77-.084-8.964-2.426C93 416 93 416 93.25 413.75L94 412l2 3v-1l2.492.219c11.41 1.333 11.41 1.333 22.723.21L123 414l1 1c1.527.087 3.057.107 4.586.098l2.82-.01 2.969-.026 2.945-.013c1.81-.009 3.618-.02 5.428-.033 1.75-.012 3.501-.016 5.252-.016l2.5-.5c2.567-.513 4.65-.752 7.188 0 4.47.967 8.956.952 13.312-.5l3 1c1.34-.308 2.672-.644 4-1 1.686-.09 3.374-.13 5.063-.125l2.597-.008C188 414 188 414 191 415c1.702.093 3.407.128 5.11.13l3.157.009 3.409-.006 3.509.003c2.452 0 4.904-.001 7.356-.006 3.746-.005 7.492 0 11.238.007 2.382 0 4.765-.002 7.147-.004l3.39.006c5.034-.015 9.723-.22 14.684-1.139 2.081.269 4.163.538 6.244.812 3.303.225 6.433-.03 9.733-.304 6.517-.478 12.96-.516 19.492-.36l5.476.106c2.797.056 5.59.122 8.386.22 12.256.96 12.256.96 22.888-3.997A70.923 70.923 0 0 0 325 407Z"/><path fill="#855A36" d="M245 161c3.453 1.247 6.254 2.538 9 5l.875 1.938c1.038 2.33 1.038 2.33 3.871 3.632 4.306 2.784 6.112 6.933 8.442 11.368 4.772 8.66 10.216 15.75 16.812 23.062 3.06 3.62 6.048 7.292 9 11l2.23 2.777 2.145 2.786 1.898 2.44c5.005 8.686 5.12 17.298 4.914 27.122l-.04 3.766c-.036 3.037-.085 6.073-.147 9.109-2.372-3.558-2.062-4.543-1.75-8.688.098-5.81-.918-10.38-2.938-15.75l-.739-2.004c-1.848-4.617-4.331-7.808-7.573-11.558v-2l-1.793-.781c-6.475-3.576-10.726-11.219-14.727-17.215-1.33-2.118-1.33-2.118-3.48-3.004-6.821-.553-12.79-.219-19.16 2.344C250 207 250 207 247 207v2c-5.417.934-8.805 1.208-14-1l-1-5c6-1.725 11.808-3.15 18-4l2.813-1.063c6.884-2.024 13.495-1.265 20.187 1.063-.708-2.958-.708-2.958-2-6l-1.945-.914c-2.702-1.428-3.094-2.775-4.18-5.586-1.103-2.808-1.718-4.343-3.875-6.5l-.805-2.367c-1.513-3.334-3.377-4.62-6.32-6.758-2.758-2.008-2.758-2.008-4.875-3.875v-3l-4-1v-2Z"/><path fill="#050301" d="M261.188 222.125c3.327 2.219 6.044 4.257 7.812 7.875 1.015 5.888.444 11.012-3 16-5.143 4.64-8.42 5.415-15.234 5.344-4.419-.55-5.856-1.998-8.766-5.344-3.254-4.773-3.918-9.37-3-15 4.687-9.04 12.519-12.287 22.188-8.875Z"/><path fill="#563D18" d="M173.25 222.188c3.568 2.351 5.842 4.996 7.75 8.812.591 5.683.272 10.148-3 15-4.926 4.446-7.951 5.35-14.457 5.285-4.645-.52-7.364-2.944-10.356-6.347-2.838-4.632-2.908-9.675-2.187-14.938 4.246-8.822 13.731-10.925 22.25-7.813Z"/><path fill="#C9CBD0" d="m211.125 336.438 2.746-.034c6.585.073 6.585.073 9.246 2.631L224 341l-1.5 1.125c-1.758 1.863-1.758 1.863-1.875 4.813.117 3.08.117 3.08 1.938 5.125C224 354 224 354 224 356.438c-1.435 3.676-2.732 5.295-6 7.562-2.633.06-5.007-.24-7.598-.703-2.38-.448-2.38-.448-4.55.285L204 364c-4.629-3.726-7.557-7.693-8.355-13.652-.362-7.288-.362-7.288 2.253-11.153 4.4-3.114 7.966-2.897 13.227-2.757Z"/><path fill="#E2E1E1" d="M176.5 221.063c5.534 3.222 9.211 7.125 11.875 12.937.743 3.566 1.087 6.37.625 10-3.735 4.565-9.009 9.374-15.055 10.322-18.082.698-18.082.698-24.21-4.56L148 248l-1.86-1.605c-2.658-2.567-3.997-4.348-4.503-8.063A64.62 64.62 0 0 1 142 231h2l.5-2.125c5.904-11.317 21.313-12.774 32-7.813Zm-23.938 6.062C150.24 231.4 150.374 235.239 151 240c1.889 5.368 4.92 8.46 10 11 5.011.55 8.897.562 13.438-1.75 3.806-3.342 6.198-6.12 6.8-11.3.182-5.53-.505-8.595-4.238-12.95-3.981-3.499-7.56-4.36-12.875-4.281-4.742.627-8.01 3.309-11.563 6.406Z"/><path fill="#E3E2E1" d="M268 220.938c5.718 3.773 9.342 8.939 10.75 15.625-1.364 6.25-5.452 10.948-10.75 14.437h-2v2c-6.986 2.233-17.637 2.197-24.563-.125-7.853-4.284-7.853-4.284-10.437-7.875-1.44-5.289-.096-10.387 2.531-15.078 7.994-10.46 22.297-14.988 34.469-8.984Zm-26.313 5.625c-3.105 4.486-3.321 8.063-2.687 13.437 1.698 4.743 4.548 8.632 9 11 5.367.796 9.614.693 14.5-1.75 3.849-3.464 6.084-6.237 6.809-11.484.246-4.801.125-7.957-2.997-11.766-3.89-3.855-6.764-4.877-12.25-5.313-5.327.161-8.79 1.903-12.375 5.875Z"/><path fill="#BEBEBE" d="M90 379h1l.136 3.042c.17 3.737.36 7.473.554 11.21.081 1.614.158 3.23.23 4.844.103 2.327.225 4.652.35 6.978l.085 2.176c.257 4.384 1.1 7.178 3.645 10.75l1 2H71c1.289-14.175 6.845-26.09 16-37l1.605-2.203L90 379Z"/><path fill="#D3D5D8" d="m326 271 3 1-1 4c-6.384.958-12.08.877-18.496.156-2.502-.366-2.502-.366-4.504.844a105.48 105.48 0 0 1-5.504-.43c-7.708-.659-15.359-.721-23.089-.7-2.338.005-4.676 0-7.014-.007-8.22-.003-16.323.234-24.514.971-3.763.217-7.16-.283-10.879-.834a69.17 69.17 0 0 0-4 1 139.724 139.724 0 0 1-4-1l-2 1v-2l-2.563.438c-15.51 2.538-15.51 2.538-21.437.562-1.34.308-2.672.645-4 1a91.49 91.49 0 0 1-4.976.098l-3.019-.01-3.275-.026-7.018-.025-3.723-.018c-20.257-.1-40.486-.038-60.73.713-8.833.31-17.45.103-26.259-.732l4-4v2l2-1c3.036-.096 6.05-.13 9.086-.12l2.889-.003c3.213-.001 6.427.004 9.64.01l6.888-.001c6.25 0 12.5.006 18.75.013 6.524.006 13.05.006 19.574.008 10.958.002 21.915.009 32.872.018 11.288.009 22.575.016 33.863.02h2.107l10.466.005c28.955.01 57.91.028 86.865.05v-3Z"/><path fill="#B8B8B8" d="M328 383c3.77 1.257 4.058 2.407 5.938 5.813 1.527 2.757 2.844 4.971 5.09 7.195 2.201 2.223 3.3 4.215 4.597 7.055l1.227 2.597c1.59 4.628 2.273 9.525 3.148 14.34h-26l4-6c.722-3.56.722-3.56.828-7.367l.117-2.06c.12-2.149.212-4.298.305-6.448.076-1.466.155-2.932.234-4.398.191-3.575.36-7.15.516-10.727Z"/><path fill="#636568" d="M325 415c-1.875 3.875-1.875 3.875-3 5-2.89.105-5.757.143-8.649.14l-2.782.01c-3.102.008-6.203.01-9.305.011l-6.641.015c-6.03.013-12.062.02-18.093.024l-11.288.012c-10.41.012-20.82.022-31.23.026h-2.02a303889126.754 303889126.754 0 0 1-6.088.002h-2.036c-10.891.005-21.783.022-32.674.046-11.171.023-22.343.036-33.514.037-6.277.001-12.553.007-18.83.025-5.9.016-11.801.018-17.702.01-2.171-.001-4.342.003-6.514.013-2.953.013-5.905.007-8.858-.004l-2.634.025c-2.385-.02-2.385-.02-6.142-.392l-2-3 226 1v-2c2-1 2-1 4-1Z"/><path fill="#3E291D" d="m359.371 349.3 1.629.7c-.036 8.164-2.272 15.279-7 22-1.98.941-1.98.941-4 1-4.777-2.218-8.225-4.375-11-9-.063-2.063-.063-2.063 1-4 3.475-2.991 7.135-5.454 11.063-7.813l3.097-1.894C357 349 357 349 359.371 349.301Z"/><path fill="#6B5544" d="M171.922 199.27c4.24 1.006 8.434 1.282 12.777 1.52C187 201 187 201 188 202c.29 2.756.45 4.373-1.195 6.668-3.127 2.308-6.19 1.357-9.883.922-3.639-.735-6.686-2.048-10.008-3.668-5.227-2.517-12.356-3.057-17.91-1.285-1.688.744-3.348 1.551-5.004 2.363-1.323.373-2.652.73-4 1 .35-2.83.768-3.806 2.996-5.668l2.441-1.52 2.434-1.542c7.538-4.496 16.016-2.24 24.05 0Z"/><path fill="#7C5F41" d="M259 224c3.438 2 3.438 2 6 4h3c1.847 3.695 1.342 7.959 1 12-1.889 5.368-4.92 8.46-10 11-9.085 1.04-9.085 1.04-13.059-1.117-1.629-1.383-1.629-1.383-3.941-3.883l2-1v-3c3.875.875 3.875.875 5 2 4.16.515 7.794.618 11.563-1.313 2.325-4.348 1.737-8.86 1.437-13.687-3.556-1.518-6.113-2.222-10-2l-2 6-5-1-1-3c4.175-5.567 8.21-6.23 15-5Z"/><path fill="#655041" d="M273.016 199.785c2.883 1.766 4.845 3.593 6.984 6.215v2c-2.537-.47-4.11-1.074-6.285-2.52-5.244-2.86-11.71-2.243-17.39-.8a93.118 93.118 0 0 0-4.485 1.664C250 207 250 207 247 207v2c-5.417.934-8.805 1.208-14-1l-1-5c6-1.725 11.808-3.15 18-4l2.813-1.063c7.178-2.11 13.526-1.478 20.203 1.848Z"/><path fill="#BD9673" d="m184.746 148.512 3.064.021c3.21.028 6.418.09 9.627.155 2.185.025 4.369.047 6.553.068 5.337.055 10.674.138 16.01.244v2l2.375-.25c5.001.345 9.077 2.236 13.625 4.25v2l2.25.875A81.918 81.918 0 0 1 245 161v2c-4.365-1.679-8.451-3.726-12.598-5.879A27.533 27.533 0 0 0 226 155v-2c-8.332-1.942-16.485-2.312-25.007-2.26-2.122.01-4.243 0-6.364-.013-7.093-.01-13.843.046-20.629 2.273l-1 3c-2.063 1.375-2.063 1.375-5 3a979.006 979.006 0 0 0-6.133 3.914C160 164 160 164 157 165v3h-2c-.235.562-.47 1.124-.71 1.703-1.597 2.843-3.58 4.778-5.915 7.047l-2.477 2.422L144 181c-1-3-1-3-.063-5.688 2.763-4.436 6.285-7.74 10.063-11.312l1.453-1.527c1.955-1.861 4.072-3.32 6.297-4.848 2.884-1.986 5.594-3.922 8.251-6.214 4.684-3.33 9.172-3.048 14.745-2.9Z"/><path fill="#060401" d="M162 226c5.7-.456 8.548.396 13 4 1.41 2.82 1.245 4.87 1 8-1.375 2.875-1.375 2.875-3 5h-2v2c-4.772.468-7.95.685-12.063-2-2.601-4.029-2.337-6.28-1.937-11h5c1.011-3.05 1.011-3.05 0-6Z"/><path fill="#29150A" d="M370 268h1c1.007 22.04-7.75 37.034-21.324 53.781l-1.304 1.613C347 325 347 325 345.417 326.576c-4.793 4.93-5.796 9.676-6.792 16.361l-.496 2.94A415.791 415.791 0 0 0 337 353h-1c-.027-3.042-.047-6.083-.063-9.125l-.025-2.594c-.017-4.548.156-8.805 1.088-13.281h4a57.602 57.602 0 0 0 5.063-6.313l1.436-2.012C358.663 303.704 368.052 287.656 370 268Z"/><path fill="#6B6D72" d="M325 415c-1.75 3.875-1.75 3.875-4 5-2.885.084-5.746.105-8.63.082l-2.74-.01c-3.048-.012-6.096-.031-9.144-.05l-6.533-.03c-5.927-.026-11.855-.059-17.782-.093-6.189-.034-12.377-.062-18.566-.092-11.059-.053-22.118-.11-33.177-.17-14.014-.075-28.028-.145-42.042-.213-27.462-.135-54.924-.277-82.386-.424v-1h221v-2c2-1 2-1 4-1Z"/><path fill="#E4E3E2" d="M178 224c3.337.247 4.225 1.23 6.625 3.688 3.834 4.954 5.17 10.07 4.375 16.312-3.522 4.304-7.862 7.814-13 10-2.36.195-2.36.195-4.75.125l-2.422-.055L167 254v-2l1.863-.953 2.45-1.297 2.425-1.266c3.482-2.285 4.955-4.563 6.262-8.484.117-1.476.175-2.957.188-4.438l.042-2.308c-.255-2.5-1.081-4.043-2.23-6.254v-3Z"/><path fill="#7D5D41" d="M268 218v2l2.25.188c3.63 1.072 4.613 2.749 6.75 5.812l1.75 1.938c1.676 2.765 1.466 4.891 1.25 8.062-2.453-2.251-4.004-4.577-5.688-7.438-3.113-4.651-5.8-7.245-11.312-8.562-8.155-.905-15.158-.794-22 4l-2.75 1.75c-2.573 2.573-3.871 5.057-5.355 8.348C232 236 232 236 230 239c.115-1.75.242-3.5.375-5.25.07-.975.14-1.95.21-2.953.578-3.901 1.474-5.925 4.376-8.613 10.474-7.576 21.243-10.801 33.039-4.184Z"/><path fill="#A07A57" d="m178 218 2.813 1.25c5.52 4.416 8.92 11.873 10.187 18.75-.43 2.266-.43 2.266-1 4l-1.25-3.563c-3.324-8.644-6.562-12.944-14.75-17.437-6.592-2.197-15.263-2.295-21.625.688-5.6 3.407-8.308 8.725-11.375 14.312-1.112-3.335-.855-4.74.586-7.89 9.59-14.307 21.553-17.188 36.414-10.11Z"/><path fill="#E4E4E3" d="M239 226c1.347 2.694.952 4.686.813 7.688-.022 5.862.466 8.753 4.187 13.312a57.51 57.51 0 0 0 6.39 3.957L252 252v2c-8.832-.037-14.754-2.754-21-9-.66-4.945-.31-9.526 2-14h3l.938-1.938C238 227 238 227 239 226Z"/><path fill="#563C13" d="M173.25 222.188c3.568 2.351 5.842 4.996 7.75 8.812.168 2.023.168 2.023.188 4.375l.042 2.336c-.252 2.507-.978 4.122-2.23 6.289l-2-3-4 2 1-2.125c1.133-3.257 1.437-5.452 1-8.875-1.867-2.303-3.356-3.678-6-5-2.207-.07-4.417-.084-6.625-.063l-3.602.028L156 227l-2 6h-1l-1 7h-1c-.86-9.67-.86-9.67 2.125-13.438 6.31-5.624 12.177-7.279 20.125-4.375Z"/><path fill="#C9CBCF" d="m90 273 1 2h109l-1 2-1.977-.007c-8.362-.027-16.724-.044-25.085-.055l-2.03-.004c-18.943-.026-37.868.09-56.8.798-8.797.311-17.343.097-26.108-.732l3-4Z"/><path fill="#3D291D" d="M131 124h1c.643 4.156.8 7.856 0 12-2.166 2.818-4.58 4.944-7.25 7.285-5.958 5.882-9.831 13.936-12.75 21.715h-1c-.246-15.246 10.44-28.225 19-40l1-1Z"/><path fill="#A5A5A5" d="M93 375c.054 2.291.093 4.583.125 6.875l.07 3.867C93 389 93 389 91 391l-1-10c-3.977 4.429-7.257 8.704-10 14l-1.543 2.793c-2.911 5.456-5.112 10.027-5.254 16.27-.243 2.321-1.067 3.917-2.203 5.937h-2c.63-14.247 6.302-25.346 14-37l1.293-1.97C88.397 375 88.397 375 93 375Z"/><path fill="#523B2D" d="m269.125 56.063 2.2.656C278.643 59.013 285.292 62.311 292 66l-2 4-1.992-1.102C275.047 62.05 258.875 54.604 244 58v-2c1.33-.345 2.665-.675 4-1l2.25-.563c6.76-1.075 12.417-.354 18.875 1.626Z"/><path fill="#42301A" d="M261.375 222.375C264 224 264 224 266 226l-1 3-2.375-2c-4.242-2.828-8.7-2.842-13.625-2-2.782 1.525-2.782 1.525-4 4 .267 1.985.267 1.985 1 4l-1 5c.369 2.232.369 2.232 1 4h-2v3c-1.938-.813-1.938-.813-4-2-1.356-4.068-1.53-7.747-1-12 4.693-9.051 12.777-12.535 22.375-8.625Z"/><path fill="#AC835E" d="m142 181 1 2c-.926 2.32-.926 2.32-2.313 5.125-4.376 8.854-5.255 17.726-6.25 27.438-2.171 20.616-2.171 20.616-5.437 26.437-1.85-5.668-.391-11.698.25-17.5l.371-3.688c2.23-20.663 2.23-20.663 5.379-23.812.393-1.679.74-3.369 1.063-5.063l.535-2.785L137 187l3-1c1.219-2.504 1.219-2.504 2-5Z"/><path fill="#5A4134" d="m210.875 91.75 3.512-.063c6.325-.028 11.039.225 16.613 3.313l-1.875.438c-2.158.494-2.158.494-4.125 1.562-1.813-.34-1.813-.34-4-.938-7.652-1.808-14.58-1.643-22 .938v-2c-5.315 2.061-9.448 4.563-14 8-1-3-1-3-.5-5 5.612-7.483 18.106-6.213 26.375-6.25Z"/><path fill="#9A9A9E" d="M332 286h1c-.12 5.105-.243 10.21-.372 15.314-.043 1.733-.085 3.466-.125 5.199-.059 2.505-.122 5.01-.187 7.514l-.05 2.312c-.123 4.57-.493 9.052-1.034 13.59-.306 2.732-.443 5.455-.548 8.2l-.127 3.193-.12 3.24-.13 3.346c-.105 2.697-.208 5.395-.307 8.092h-1l-.438-2.813c-.483-3.194-.483-3.194-1.562-6.187a87.349 87.349 0 0 1-.125-5.063l-.008-2.66C327 337 327 337 328 335c.059-3.358.021-6.701-.04-10.059-.06-5.551-.06-5.551.513-7.775.7-2.88.84-5.69 1.027-8.646l.25-3.776.5-7.898.25-3.764.219-3.462C331 287 331 287 332 286Z"/><path fill="#B8926F" d="M245 163c1.875.25 1.875.25 4 1l.82 1.8c1.987 3.704 5.527 5.66 8.868 8.102 2.513 2.28 3.266 3.92 4.312 7.098l1.438 1.875C266 185 266 185 267.5 188.563c1.344 3.08 2.188 4.23 4.5 6.437.688 2.188.688 2.188 1 4l-7-1 2-2-1.68-2.668-2.195-3.52-1.105-1.751c-1.615-2.598-3.018-5.054-4.09-7.924L258 178l-3-1c-1.606-1.95-2.982-4.003-4.402-6.09-1.718-2.053-3.146-2.898-5.598-3.91v-4Z"/><path fill="#5C4336" d="M183 99v2l-3.004.828c-12.292 3.524-24.315 7.29-31.996 18.172-.372-4.338.261-6.597 3-10 5.548-4.537 11.191-7.016 18-9 1.584-.582 3.167-1.166 4.75-1.75 3.426-1.158 5.737-1.497 9.25-.25Z"/><path fill="#986F4B" d="M245 161c3.453 1.247 6.254 2.538 9 5l.875 1.938c1.034 2.326 1.034 2.326 3.844 3.601 4.458 2.877 6.455 7.331 8.906 11.899.926 1.688 1.855 3.374 2.79 5.058l1.32 2.39c1.32 2.323 1.32 2.323 3.6 4.962C277 198 277 198 277 202l-5-2-.25-3.375L271 193l-1.914-.945c-2.75-1.391-3.117-2.723-4.211-5.555-1.103-2.808-1.718-4.343-3.875-6.5l-.805-2.367c-1.513-3.334-3.377-4.62-6.32-6.758-2.758-2.008-2.758-2.008-4.875-3.875v-3l-4-1v-2Z"/><path fill="#2C1A0F" d="M176 77h2a118.574 118.574 0 0 1 4.688 6.875l1.298 1.973c1.073 1.675 2.051 3.41 3.014 5.152l-1 2c-2.75.917-4.36 1.109-7.188 1.063L175 94c-.185-11.522-.185-11.522 1-17Z"/><path fill="#C69F7C" d="M173 154v2c-1.625 1.066-3.306 2.047-5 3-2.05 1.296-4.092 2.604-6.133 3.914C160 164 160 164 157 165v3h-2c-.235.562-.47 1.124-.71 1.703-1.597 2.843-3.58 4.778-5.915 7.047l-2.477 2.422L144 181c-1-3-1-3-.063-5.688 4.08-6.55 9.045-11.108 16.063-14.312l3.063-2.563c3.125-2.593 5.796-4.437 9.937-4.437Z"/><path fill="#2B1D11" d="M268 218v2l2.25.188c3.63 1.072 4.613 2.749 6.75 5.812l1.75 1.938c1.676 2.765 1.466 4.891 1.25 8.062-2.453-2.251-4.004-4.577-5.688-7.438-3.11-4.648-5.8-7.252-11.312-8.562-8.289-.842-15.311-.181-23 3 6.412-7.694 18.935-7.757 28-5Z"/><path fill="#9D744F" d="M104 222h3c-1.549 18.791-1.549 18.791-5 25h-1c-1.821-8.651-1.664-15.939 2-24l1-1Z"/><path fill="#583F17" d="M259 224c3.855 1.997 5.598 3.397 8 7l-1 3v-2h-2v6h-1l-1-9c-3.508-1.604-6.144-2.22-10-2l-2 6-5-1-1-3c4.188-5.584 8.197-6.197 15-5Z"/><path fill="#B0B2B6" d="M330 274h2c1.25 2.501 1.133 4.274 1.125 7.063l.008 2.722C333 286 333 286 332 287a70.85 70.85 0 0 0-.465 4.227l-.236 2.628c-.156 1.823-.31 3.646-.461 5.47-.465 5.135-1.232 9.77-2.838 14.675h-1c-.18-9.406.797-18.708 1.914-28.04.249-2.04.249-2.04-.914-3.96a171.521 171.521 0 0 1 2-7v-1Z"/><path fill="#291D12" d="M179 221c1.354.972 2.694 1.964 4 3l-1 2-1.645-1.059-2.167-1.379-2.145-1.37c-5.78-3.371-12.575-2.708-19.043-2.192-7.186 2.019-10.613 6.55-14.25 12.813L141 236c-1.145-3.435-.705-4.862.79-8.09 2.903-4.58 7.2-7.86 11.96-10.347 9.134-1.581 17.023-1.02 25.25 3.437Z"/><path fill="#644C30" d="M244 242c3.875.875 3.875.875 5 2 1.515.232 3.038.412 4.563.563l2.503.253L258 245v6c-8.622.767-8.622.767-12-1.113-1.625-1.387-1.625-1.387-4-3.887l2-1v-3Z"/><path fill="#937256" d="m177 240 2 4c-2.416 3.278-4.177 5.525-8 7-2.578.195-2.578.195-5.25.125l-2.703-.055L161 251l4-2-2-1v-2l8-1v-2l6-3Z"/><path fill="#966D48" d="m153 163 2 1-1.863 1.688c-5.21 4.919-8.085 8.471-10.137 15.312-2.536 4.768-2.536 4.768-5 6-.62 2.113-.62 2.113-1 4.625-1.988 10.857-1.988 10.857-5 15.375.956-19.18.956-19.18 7-25l1.125-3.063C142.641 172.573 148.24 167.76 153 163Z"/><path fill="#2E1C11" d="m293 90 1 2-1.695.148c-17.368.62-17.368.62-32.305 7.852h-4v-2c12.149-6.16 23.387-8.602 37-8Z"/><path fill="#61482A" d="M172 226c2.622 1.049 3.794 1.65 5.25 4.125L178 232l3-1c.054 1.416.093 2.833.125 4.25l.07 2.39c-.212 2.567-.908 4.152-2.195 6.36l-2-3-4 2 1-2.125c1.632-4.692 1.523-7.698-.5-12.25L172 226Z"/><path fill="#342013" d="M208 134c0 3 0 3-1.5 4.688L205 140h7c-12.077 8.051-27.344 4.582-41 3v-1h31l2-4a89.782 89.782 0 0 1 4-4Z"/><path fill="#B48C68" d="M275 206c8.454 4.65 13.6 13.238 19 21l-1 2-.75-1.875c-1.055-2.243-1.055-2.243-3.113-3.027C283.105 220.999 278.663 213.55 275 208v-2Z"/><path fill="#301D12" d="m284.125 100.75 2.59-.023c5.145.015 9.412.61 14.285 2.273-2.924.845-5.48 1.108-8.52 1.063l-2.6-.024-5.35-.078c-4.964-.045-9.614.25-14.53 1.039h-4l-1-2c6.509-1.657 12.421-2.311 19.125-2.25Z"/><path fill="#CAA27C" d="M224 220c1.125 1.563 1.125 1.563 2 4a255.805 255.805 0 0 1-2 7 64.275 64.275 0 0 0 0 4.25c0 3.75 0 3.75-2 6.75l-2-1c-.315-7.114-.44-12.67 3-19l1-2Z"/><path fill="#C5C3C3" d="m253.938 219.313 2.59.238c2.489.452 4.284 1.205 6.472 2.449l-2 1-3-1c-5.584-.366-9.226-.255-14 3-2.367 3.048-2.367 3.048-4 6l-1-4-3 4-2-1c4.642-6.77 11.586-11.529 19.938-10.688Z"/><path fill="#CBA47D" d="m196 226 3 1c1.07 3.208 1.167 5.63 1.188 9l.042 3.188C200 242 200 242 198 245c-2.528-3.792-2.224-6.809-2.125-11.188l.027-2.271c.024-1.847.06-3.694.098-5.541Z"/><path fill="#604536" d="M265 55v3l6 2c-2 1-2 1-3.777.477l-2.16-.852C258.163 57.195 251.159 56.3 244 58v-2c6.931-1.797 13.98-3.34 21-1Z"/><path fill="#6D502F" d="M152 241h3l1 5h2v-3l11 2v1h-6v2l3 1v1c-4.256.426-7.013.418-10.375-2.25-3.388-3.55-3.388-3.55-3.625-6.75Z"/><path fill="#8C8B8C" d="M327 366h2l-.133 2.281c.027 11.042 4.923 17.94 11.133 26.719h-3c-3.246-3.449-7-8.072-7-13h-2l-1-16Z"/><path fill="#ECC9A8" d="M209.563 264.938 212 265l1 5h6v1h-18c6-6 6-6 8.563-6.063Z"/><path fill="#694E41" d="m170 105-1.906.664c-8.305 3.077-14.907 6.987-20.094 14.336-.367-4.278.394-6.585 3-10 3.595-2.485 6.956-3.72 11.188-4.75l3.167-.797C168 104 168 104 170 105Z"/><path fill="#AA8360" d="M182 149c-3.376 2.836-6.944 4.322-11 6-4.613 2.061-8.336 4.663-12.266 7.793C157 164 157 164 155 164v-2c1.617-1.262 1.617-1.262 3.875-2.688 2.638-1.677 5.186-3.359 7.668-5.261 5.435-4.155 8.58-5.942 15.457-5.051Z"/><path fill="#2F1B10" d="m337 328 3 1c0 8.07-1.619 16.076-3 24h-1c-.027-3.042-.047-6.083-.063-9.125l-.025-2.594c-.017-4.548.156-8.805 1.088-13.281Z"/><path fill="#BF9975" d="m260 181 3 2v3l3 1a132.038 132.038 0 0 1 3 5l1.625 1.563c1.66 1.735 1.972 3.102 2.375 5.437l-7-1 2-2-1.75-2.773-2.25-3.602-1.156-1.828C260 183.227 260 183.227 260 181Z"/><path fill="#B48E6C" d="M222 151c5.053.632 9.296 2.135 14 4v2l2.25.875A81.918 81.918 0 0 1 245 161v2c-4.365-1.679-8.451-3.726-12.598-5.879A27.533 27.533 0 0 0 226 155v-2l-4-2Z"/><path fill="#AAA8A7" d="M157 219c8.443-.427 14.759-.634 22 4l-2 3-1.813-1.438c-4.448-3.177-8.47-2.54-13.69-2.304L159 222l-2-3Z"/><path fill="#A07E62" d="M265 241c.375 2.75.375 2.75 0 6-3 2.375-3 2.375-6 4l-2-1c.299-3.588.77-4.782 3.438-7.313C263 241 263 241 265 241Z"/><path fill="#5C4118" d="M243 229c1.563 1.688 1.563 1.688 3 4-.375 2.5-.375 2.5-1 5 .369 2.232.369 2.232 1 4h-2l-1 2c-2.081-3.122-2.274-3.933-2.25-7.5l-.016-2.344C241 232 241 232 243 229Z"/><path fill="#412F1B" d="M162 221c5.597-.29 9.168-.185 14 3 4 4.21 4 4.21 4 8h-2a104.56 104.56 0 0 1-2.438-3.938c-2.02-2.857-2.976-3.907-6.402-4.816-2.74-.222-5.412-.324-8.16-.246l1-2Z"/><path fill="#2E1D12" d="M283 185c4.72 3.433 8.245 7.586 12 12 1.31 1.502 2.623 3.002 3.938 4.5L302 205l-1 2c-13.583-13.14-13.583-13.14-18-20v-2Z"/><path fill="#4C3F30" d="m159 222 3 1-1 2h-3v2h-2l-2 6h-1l-1 7h-1c-.86-9.68-.86-9.68 2.313-13.5C156 224 156 224 159 222Z"/><path fill="#B68E69" d="m154 164 1 3c-1.766 2.594-1.766 2.594-4.25 5.5l-2.453 2.906c-1.716 1.938-3.433 3.802-5.297 5.594 1.242-5.59 2.932-9.322 7.125-13.313l2.195-2.113L154 164Z"/><path fill="#82664C" d="M258 246v5h-10l-1-2 3-1v-2c5.75-1.125 5.75-1.125 8 0Z"/><path fill="#51382A" d="M188.266 67.285 190 68l-1.75 1.355-2.25 1.832-2.25 1.793c-2.01 1.923-2.01 1.923-2 4.758L182 80c-3-2-3-2-3.688-4.125L178 74a241.769 241.769 0 0 1 3.75-3.563l2.11-2.003C186 67 186 67 188.265 67.285Z"/><path fill="#3B271C" d="m225 70 1 2a113.978 113.978 0 0 1-4.25 7.625l-1.238 2.14c-1.082 1.802-2.29 3.526-3.512 5.235h-3c3.195-6.171 6.283-11.867 11-17Z"/><path fill="#9C9EA2" d="M87 285h2l1 18-3 1v-11l-2-1 2-7Z"/><path fill="#8A6849" d="m238 222-.836 1.578c-1.44 2.998-2.608 6.063-3.789 9.172l-1.352 3.547L231 239h-1c.115-1.75.242-3.5.375-5.25.07-.975.14-1.95.21-2.953.408-2.751.907-4.478 2.415-6.797 3-2 3-2 5-2Z"/><path fill="#5F4639" d="m143 145 2 1-1.863 1.172-2.45 1.578-2.425 1.547c-2.267 1.707-3.587 3.444-5.262 5.703h-2l-.813 1.813c-1.172 2.16-2.38 3.545-4.187 5.187 2.197-7.813 8.636-13.187 15.3-17.285L143 145Z"/><path fill="#9C9C9C" d="M72 405c2 3 2 3 1.793 5.41l-.606 2.652-.582 2.66C72 418 72 418 71 420h-2c.779-10.558.779-10.558 3-15Z"/><path fill="#E9E8E6" d="M159 226c2.063.438 2.063.438 4 1 .625 1.875.625 1.875 1 4l-2 2c-2.625-.375-2.625-.375-5-1 .875-4.875.875-4.875 2-6Z"/><path fill="#A9835F" d="M266 217c-2.357 1.178-3.526 1.044-6.133.879l-2.441-.147-2.551-.17-2.574-.158c-2.1-.13-4.2-.266-6.301-.404 6.147-4.098 13.669-3.799 20 0Z"/><path fill="#322016" d="M301 141c1.5 1.375 1.5 1.375 3 3v2h-2l1 3c.116 1.518.175 3.04.188 4.563l.042 2.378C303 158 303 158 301 160c-1.314-5.913-1.319-11.971-1-18l1-1Z"/><path fill="#362317" d="m303 123 7 2-1 3-1.688-.219c-3.964-.482-7.755-.817-11.75-.656L292 127l-2-3 13 1v-2Z"/><path fill="#503629" d="m357 349 4 1c-.576 4.755-2.55 7.97-5 12h-1c-.125-2.875-.125-2.875 0-6l2-2c.167-2.584.167-2.584 0-5Z"/><path fill="#7E654C" d="m171 246-1 3 3 1c-2.525 1.262-4.312 1.099-7.125 1.063l-2.758-.028L161 251l4-2-2-1v-2c5.75-1.125 5.75-1.125 8 0Z"/><path fill="#E8E7E4" d="m246 226 4 1 1 5-5 1-2-4 2-3Z"/><path fill="#6A5744" d="M270 220c4.822 2.054 7.452 5.504 10 10 .375 3.5.375 3.5 0 6-2.982-2.556-4.346-5.476-6-9a56.87 56.87 0 0 0-4-7Z"/><path fill="#906845" d="m269 188 4 5 2.25 2.563C277 198 277 198 277 202c-2.438-.688-2.438-.688-5-2-.688-2.375-.688-2.375-1-5l-1.063-2.125C269 191 269 191 269 188Z"/><path fill="#B8906A" d="m142 181 1 2c-.926 2.32-.926 2.32-2.313 5.125-2.19 4.619-3.65 8.88-4.687 13.875h-1c.115-1.917.242-3.834.375-5.75.07-1.067.14-2.135.21-3.234.388-2.818.972-4.599 2.415-7.016h2l2-5Z"/><path fill="#553D30" d="m122 167 2 1-1.438 2.563c-1.723 3.36-1.723 3.36-2.062 7-.516 3.549-1.47 5.525-3.5 8.437-1.699-4.063-.114-7.32 1.375-11.188.235-.64.47-1.282.71-1.943 1.75-4.703 1.75-4.703 2.915-5.869Z"/><path fill="#D8DADF" d="M217 328c-.313 2.875-.313 2.875-1 6-3 2-3 2-6 2 .34-3.151.58-4.608 2.938-6.813C215 328 215 328 217 328Z"/><path fill="#A28466" d="m148 220 2 1-2.813 2.063c-3.401 2.838-4.822 5.69-6.187 9.937-.254 2.793-.254 2.793 0 5-2-1-2-1-2.875-3.625-.16-4.33 1.187-7.1 3.875-10.375 1.932-1.603 3.803-2.752 6-4Z"/><path fill="#7A614A" d="M183 225c4.181 2.818 6.272 4.63 7.438 9.625.59 3.119.596 4.274-.438 7.375l-1.25-3.563c-1.093-2.944-2.339-5.61-3.938-8.312C183 227 183 227 183 225Z"/><path fill="#D0AB8A" d="M228 155c6.164 1.666 11.483 4.878 17 8v2c-6.353-1.792-13.26-4.39-17-10Z"/><path fill="#CD9D6D" d="M100 231h1l1 6h2c-.114 1.48-.241 2.96-.375 4.438l-.21 2.496L103 246l-2 1c-1.129-5.361-1.097-10.553-1-16Z"/><path fill="#C29B73" d="M104 222h3c.125 2.875.125 2.875 0 6l-2 2c-2.125-.375-2.125-.375-4-1 1.875-5.875 1.875-5.875 3-7Z"/><path fill="#DCC1A9" d="M278 235c1.765 3.088 2 4.233 2 8-1.645 1.957-1.645 1.957-3.813 3.813l-2.144 1.894L272 250l-3-1 2.313-1.688c4.148-3.57 5.916-6.914 6.687-12.312Z"/><path fill="#352317" d="M251 145c6.195 1.585 9.264 4.512 12.875 9.688L265 157l-1 2c-.603-.675-1.207-1.35-1.828-2.047l-2.422-2.703-2.39-2.672A170.457 170.457 0 0 0 251 145Z"/><path fill="#331E12" d="m101 247 3 2-1.875 3.5c-2.066 4.103-3.164 8.017-4.125 12.5h-1c.51-6.437 1.73-11.96 4-18Z"/><path fill="#31251B" d="m262 217 6 1v2l1.813.813c2.16 1.172 3.545 2.38 5.187 4.187l-1 2-2.125-1.813c-2.81-2.29-2.81-2.29-6.125-3.75C263 220 263 220 262 217Z"/><path fill="#5A4134" d="M237 96c6.357.489 6.357.489 9.438 2.938C248 101 248 101 248 103l-3-1v-2l-8-1v-3Z"/><path fill="#625347" d="M152 241h3l1 5 1.75.313c2.57.785 4.187 1.992 6.25 3.687-6.099-.24-6.099-.24-8.578-2.332C152 243.627 152 243.627 152 241Z"/><path fill="#735738" d="m177 233 2 1c.414 2.066.414 2.066.625 4.563l.227 2.503L180 243l-2 1-1-3-4 2 4-10Z"/><path fill="#9E9B9A" d="m253.938 219.313 2.59.238c2.489.452 4.284 1.205 6.472 2.449l-2 1-3-1c-6.086-.233-6.086-.233-12 1v-3c3.108-1.036 4.73-1.01 7.938-.688Z"/><path fill="#5B4235" d="M254 144c5.93 2.314 9.12 6.167 13 11l-1 2c-1.439-1.27-2.876-2.54-4.313-3.813l-2.425-2.144c-3.98-3.594-3.98-3.594-5.262-5.043v-2Z"/><path fill="#898B90" d="M326 407c.313 2.313.313 2.313 0 5-2.25 1.875-2.25 1.875-5 3-2.172-.43-2.172-.43-4-1 1.31-1.17 2.623-2.336 3.938-3.5l2.214-1.969C325 407 325 407 326 407Z"/><path fill="#C2C4C7" d="M85 278h3l-1 13h-1c-1.102-4.41-1.077-8.484-1-13Z"/><path fill="#2D1B10" d="m139 149 2 1-12 12c0-3.719.874-4.361 3.313-7.063l1.863-2.097C136 151 136 151 139 149Z"/><path fill="#605144" d="M266 227c3 3 3 3 3.293 5.48l-.106 2.708-.082 2.73L269 240l-2 1-1-14Z"/><path fill="#A47B57" d="M285 217c3.864 3.005 6.91 5.45 9 10l-1 2-.75-1.875c-1.058-2.274-1.058-2.274-3.25-3-2-1.125-2-1.125-3.25-4.25L285 217Z"/><path fill="#AC8461" d="M257 173c3.557 2.253 4.574 4.101 6 8a70.29 70.29 0 0 0 3 4l-1 2c-2.623-1.312-3.161-2.756-4.563-5.313l-1.316-2.363c-1.025-2.124-1.652-4.021-2.121-6.324Z"/><path fill="#D3AB85" d="M157 166v2h-2l-.773 1.797c-1.345 2.415-2.72 3.715-4.852 5.453l-1.914 1.578L146 178c1.436-3.187 3.203-5.622 5.5-8.25l1.844-2.14C155 166 155 166 157 166Z"/><path fill="#E4C0A0" d="M219 154c3.188-.313 3.188-.313 7 0 2.938 2.5 2.938 2.5 5 5-2.846-.66-5.523-1.517-8.25-2.563l-2.14-.816L219 155v-1Z"/><path fill="#9C9EA2" d="M330 326h1a782.016 782.016 0 0 1-.375 6.938l-.21 3.902c-.138 1.043-.274 2.086-.415 3.16l-2 1c-1.116-3.37-.868-5.74-.125-9.188l.555-2.667C329 327 329 327 330 326Z"/><path fill="#A6A6A6" d="M344 410c3 2 3 2 3.512 3.945L348 420h-3l-1-10Z"/><path fill="#8C8E91" d="M93 375c.054 2.291.093 4.583.125 6.875l.07 3.867C93 389 93 389 91 391v-14l-2-1c2-1 2-1 4-1Z"/><path fill="#C7A17D" d="m200 265 2 1c-1.188 2.5-1.188 2.5-3 5-2.688.313-2.688.313-5 0v-4l2.438-.438c2.483-.303 2.483-.303 3.562-1.562Z"/><path fill="#483829" d="M145 224c1 3 1 3 .004 5.262l-1.441 2.425-1.434 2.45L141 236c-1.403-4.208.094-6.117 2-10l2-2Z"/><path fill="#C59F7B" d="M220 267h6l1 4-7-1v-3Z"/><path fill="#3B251A" d="M350 216c2 1 2 1 2.852 3.066l.773 2.496c.26.827.52 1.653.79 2.504L355 226c-3-1-3-1-4.75-3.875C349 219 349 219 350 216Z"/><path fill="#5C4336" d="m154 108 2 1-1.813 2.125c-2.164 2.845-3.683 5.641-5.187 8.875h-1c-.366-4.272.48-6.546 3-10l3-2Z"/><path fill="#654A3D" d="m193 97-8 6-1-3c2.921-3.2 4.625-4.458 9-3Z"/><path fill="#B7B9BC" d="M330 274h2l1 6h-2v3l-3 1 2-10Z"/><path fill="#BE936F" d="m176 244-1 5h-5c.375-1.938.375-1.938 1-4 2-1 2-1 5-1Z"/><path fill="#C8A27F" d="M250 170c3.21 1.382 5.05 2.924 7.25 5.625l1.578 1.914L260 179l-1 2-1-3-3-1c-1.387-1.629-1.387-1.629-2.688-3.563l-1.324-1.94L250 170Z"/><path fill="#D5AF89" d="M281 235c1.57 2.494 2.027 3.704 1.75 6.688L282 244l-2 1c-1.25-6.625-1.25-6.625 1-10Z"/><path fill="#523A14" d="m243 229 3 4-3 1-1 7h-1a280.282 280.282 0 0 1-.125-4.313l-.07-2.425C241 232 241 232 243 229Z"/><path fill="#3A271B" d="M265 159c1.875.313 1.875.313 4 1 2 3 2 3 1.625 5.188L270 167c-5-5.75-5-5.75-5-8Z"/><path fill="#5E4421" d="m261 227 6 4-1 3v-2h-2v6h-1l-2-11Z"/><path fill="#A67D58" d="M144 175c0 3.196-.547 4.417-2 7.188l-1.125 2.167L140 186c-.617-1.8-.617-1.8-1-4 1.494-2.54 2.905-4.905 5-7Z"/><path fill="#5D4335" d="m276 59 4 2v3l-9-2v-1l5-1v-1Z"/><path fill="#C29570" d="M261 243h3l-1 4-4 1c.875-3.875.875-3.875 2-5Z"/><path fill="#39271B" d="M275 173h3l.375 1.938L279 177l2 1-1 4a466.06 466.06 0 0 1-2.5-3.375l-1.406-1.898C275 175 275 175 275 173Z"/><path fill="#976E4B" d="M236 155c3.403 1.059 6.014 2.009 9 4v2c-3.083-1.199-6.063-2.477-9-4v-2Z"/><path fill="#4D392A" d="M274 202c2.622 1.049 3.794 1.65 5.25 4.125L280 208c-1.875-.188-1.875-.188-4-1-1.25-2.563-1.25-2.563-2-5Z"/><path fill="#604435" d="m199 60 2 2-9 4c2-4 2-4 4.625-5.25L199 60Z"/><path fill="#967456" d="m169 245 2 1-1 3 3 1-3 1-3-2v-3l2-1Z"/><path fill="#AD8662" d="m101 233 4 1v6l-1-3-3 1v-5Z"/><path fill="#433321" d="M260 222c4.8 2.462 4.8 2.462 5.813 5.188L266 229c-4.8-2.462-4.8-2.462-5.813-5.188L260 222Z"/><path fill="#BAB9B7" d="M157 219h11v1l-9 2-2-3Z"/><path fill="#372318" d="M113 156h2l-3 9h-1c-.25-5.625-.25-5.625 2-9Z"/><path fill="#604537" d="m186 67 4 1-7 5c1.875-4.875 1.875-4.875 3-6Z"/><path d="m84 288 1 4Z"/></svg>